<mxfile host="app.diagrams.net" modified="2024-05-10T18:22:55.688Z" agent="Mozilla/5.0 (Macintosh; Intel Mac OS X 10_15_7) AppleWebKit/605.1.15 (KHTML, like Gecko) Version/17.4.1 Safari/605.1.15" etag="O20EGwqdlf6wyW60Kc9O" version="24.3.1" type="github">
  <diagram name="Page-1" id="IJAcfylv0jYkizkz6Voq">
    <mxGraphModel dx="1188" dy="657" grid="1" gridSize="10" guides="1" tooltips="1" connect="1" arrows="1" fold="1" page="1" pageScale="1" pageWidth="850" pageHeight="1100" math="0" shadow="0">
      <root>
        <mxCell id="0" />
        <mxCell id="1" parent="0" />
        <mxCell id="tDcAuVGbezX6oGikaFmZ-40" value="" style="edgeStyle=orthogonalEdgeStyle;rounded=0;orthogonalLoop=1;jettySize=auto;html=1;strokeWidth=30;endArrow=none;endFill=0;fillColor=#a0522d;strokeColor=#aa7942;fontFamily=Montserrat;fontSource=https%3A%2F%2Ffonts.googleapis.com%2Fcss%3Ffamily%3DMontserrat;" edge="1" parent="1" source="tDcAuVGbezX6oGikaFmZ-32" target="tDcAuVGbezX6oGikaFmZ-39">
          <mxGeometry relative="1" as="geometry">
            <mxPoint x="235" y="260" as="sourcePoint" />
            <mxPoint x="235" y="400" as="targetPoint" />
          </mxGeometry>
        </mxCell>
        <mxCell id="tDcAuVGbezX6oGikaFmZ-1" value="GARAGE" style="whiteSpace=wrap;html=1;fontFamily=Montserrat;fontSize=30;strokeWidth=10;fontSource=https%3A%2F%2Ffonts.googleapis.com%2Fcss%3Ffamily%3DMontserrat;fillColor=#b1ddf0;strokeColor=#10739e;" vertex="1" parent="1">
          <mxGeometry x="210" y="890" width="634" height="200" as="geometry" />
        </mxCell>
        <mxCell id="tDcAuVGbezX6oGikaFmZ-2" value="HVAC" style="html=1;fillColor=#86DECE;strokeColor=#8A919C;strokeWidth=10;fontFamily=Montserrat;fontSource=https%3A%2F%2Ffonts.googleapis.com%2Fcss%3Ffamily%3DMontserrat;fontSize=35;whiteSpace=wrap;" vertex="1" parent="1">
          <mxGeometry x="670" y="690" width="174" height="120" as="geometry" />
        </mxCell>
        <mxCell id="tDcAuVGbezX6oGikaFmZ-6" value="" style="endArrow=none;html=1;rounded=0;strokeWidth=14;fontFamily=Montserrat;fontSource=https%3A%2F%2Ffonts.googleapis.com%2Fcss%3Ffamily%3DMontserrat;" edge="1" parent="1">
          <mxGeometry width="50" height="50" relative="1" as="geometry">
            <mxPoint x="40" y="890" as="sourcePoint" />
            <mxPoint x="40" y="50" as="targetPoint" />
          </mxGeometry>
        </mxCell>
        <mxCell id="tDcAuVGbezX6oGikaFmZ-7" value="" style="endArrow=none;html=1;rounded=0;strokeWidth=14;fontFamily=Montserrat;fontSource=https%3A%2F%2Ffonts.googleapis.com%2Fcss%3Ffamily%3DMontserrat;" edge="1" parent="1">
          <mxGeometry width="50" height="50" relative="1" as="geometry">
            <mxPoint x="843" y="50" as="sourcePoint" />
            <mxPoint x="33" y="50" as="targetPoint" />
          </mxGeometry>
        </mxCell>
        <mxCell id="tDcAuVGbezX6oGikaFmZ-8" value="RASPBERRY BUSH" style="html=1;fillColor=#83D9CA;strokeColor=#8A919C;strokeWidth=10;fontFamily=Montserrat;fontSource=https%3A%2F%2Ffonts.googleapis.com%2Fcss%3Ffamily%3DMontserrat;fontSize=35;whiteSpace=wrap;" vertex="1" parent="1">
          <mxGeometry x="380" y="810" width="464" height="70" as="geometry" />
        </mxCell>
        <mxCell id="tDcAuVGbezX6oGikaFmZ-9" value="Tomato Garden" style="html=1;fillColor=#83D9CA;strokeColor=#8A919C;strokeWidth=10;fontFamily=Montserrat;fontSource=https%3A%2F%2Ffonts.googleapis.com%2Fcss%3Ffamily%3DMontserrat;fontSize=35;whiteSpace=wrap;" vertex="1" parent="1">
          <mxGeometry x="670" y="570" width="174" height="120" as="geometry" />
        </mxCell>
        <mxCell id="tDcAuVGbezX6oGikaFmZ-10" value="STEPS" style="whiteSpace=wrap;html=1;fontFamily=Montserrat;fontSize=30;strokeWidth=10;fontSource=https%3A%2F%2Ffonts.googleapis.com%2Fcss%3Ffamily%3DMontserrat;fillColor=#bac8d3;strokeColor=#23445d;" vertex="1" parent="1">
          <mxGeometry x="40" y="810" width="330" height="80" as="geometry" />
        </mxCell>
        <mxCell id="tDcAuVGbezX6oGikaFmZ-11" value="WALK" style="whiteSpace=wrap;html=1;fontFamily=Montserrat;fontSize=30;strokeWidth=10;fontSource=https%3A%2F%2Ffonts.googleapis.com%2Fcss%3Ffamily%3DMontserrat;fillColor=#bac8d3;strokeColor=#23445d;" vertex="1" parent="1">
          <mxGeometry x="38" y="890" width="170" height="200" as="geometry" />
        </mxCell>
        <mxCell id="tDcAuVGbezX6oGikaFmZ-12" value="" style="endArrow=none;html=1;rounded=0;exitX=0;exitY=0;exitDx=0;exitDy=0;fontFamily=Montserrat;fontSource=https%3A%2F%2Ffonts.googleapis.com%2Fcss%3Ffamily%3DMontserrat;fontSize=36;endFill=0;strokeWidth=7;fillColor=#eeeeee;strokeColor=#8A919C;entryX=0.133;entryY=1.015;entryDx=0;entryDy=0;entryPerimeter=0;" edge="1" parent="1" source="tDcAuVGbezX6oGikaFmZ-8" target="tDcAuVGbezX6oGikaFmZ-14">
          <mxGeometry relative="1" as="geometry">
            <mxPoint x="370" y="520" as="sourcePoint" />
            <mxPoint x="190" y="70" as="targetPoint" />
            <Array as="points">
              <mxPoint x="380" y="540" />
              <mxPoint x="190" y="540" />
              <mxPoint x="10" y="540" />
              <mxPoint x="10" y="71" />
              <mxPoint x="40" y="71" />
            </Array>
          </mxGeometry>
        </mxCell>
        <mxCell id="tDcAuVGbezX6oGikaFmZ-21" style="edgeStyle=orthogonalEdgeStyle;rounded=0;orthogonalLoop=1;jettySize=auto;html=1;endArrow=none;endFill=0;strokeWidth=3;fontFamily=Montserrat;fontSource=https%3A%2F%2Ffonts.googleapis.com%2Fcss%3Ffamily%3DMontserrat;" edge="1" parent="1" source="tDcAuVGbezX6oGikaFmZ-14" target="tDcAuVGbezX6oGikaFmZ-18">
          <mxGeometry relative="1" as="geometry">
            <Array as="points">
              <mxPoint x="170" y="70" />
              <mxPoint x="170" y="70" />
            </Array>
          </mxGeometry>
        </mxCell>
        <mxCell id="tDcAuVGbezX6oGikaFmZ-14" value="SONOS AMP A" style="whiteSpace=wrap;html=1;aspect=fixed;direction=south;fillColor=#cdeb8b;strokeColor=#36393d;strokeWidth=4;fontFamily=Montserrat;fontSource=https%3A%2F%2Ffonts.googleapis.com%2Fcss%3Ffamily%3DMontserrat;rounded=1;spacingLeft=0;spacing=4;" vertex="1" parent="1">
          <mxGeometry x="70" y="60" width="80" height="80" as="geometry" />
        </mxCell>
        <mxCell id="tDcAuVGbezX6oGikaFmZ-15" value="Lilac" style="html=1;fillColor=#83D9CA;strokeColor=#8A919C;strokeWidth=10;fontFamily=Montserrat;fontSource=https%3A%2F%2Ffonts.googleapis.com%2Fcss%3Ffamily%3DMontserrat;fontSize=35;whiteSpace=wrap;" vertex="1" parent="1">
          <mxGeometry x="670" y="460" width="174" height="110" as="geometry" />
        </mxCell>
        <mxCell id="tDcAuVGbezX6oGikaFmZ-16" value="" style="endArrow=none;html=1;rounded=0;exitX=0.043;exitY=-0.037;exitDx=0;exitDy=0;exitPerimeter=0;fontFamily=Montserrat;fontSource=https%3A%2F%2Ffonts.googleapis.com%2Fcss%3Ffamily%3DMontserrat;fontSize=36;endFill=0;strokeWidth=7;fillColor=#eeeeee;strokeColor=#8A919C;entryX=0.5;entryY=1;entryDx=0;entryDy=0;" edge="1" parent="1" source="tDcAuVGbezX6oGikaFmZ-8" target="tDcAuVGbezX6oGikaFmZ-14">
          <mxGeometry relative="1" as="geometry">
            <mxPoint x="598" y="862" as="sourcePoint" />
            <mxPoint x="249" y="50" as="targetPoint" />
            <Array as="points">
              <mxPoint x="400" y="520" />
              <mxPoint x="250" y="520" />
              <mxPoint x="20" y="520" />
              <mxPoint x="20" y="100" />
            </Array>
          </mxGeometry>
        </mxCell>
        <mxCell id="tDcAuVGbezX6oGikaFmZ-18" value="SONOS AMP B" style="whiteSpace=wrap;html=1;aspect=fixed;direction=south;fillColor=#cdeb8b;strokeColor=#36393d;strokeWidth=4;fontFamily=Montserrat;fontSource=https%3A%2F%2Ffonts.googleapis.com%2Fcss%3Ffamily%3DMontserrat;rounded=1;spacing=4;" vertex="1" parent="1">
          <mxGeometry x="180" y="60" width="80" height="80" as="geometry" />
        </mxCell>
        <mxCell id="tDcAuVGbezX6oGikaFmZ-22" style="edgeStyle=orthogonalEdgeStyle;rounded=0;orthogonalLoop=1;jettySize=auto;html=1;endArrow=none;endFill=0;strokeWidth=3;exitX=0.25;exitY=0;exitDx=0;exitDy=0;fontFamily=Montserrat;fontSource=https%3A%2F%2Ffonts.googleapis.com%2Fcss%3Ffamily%3DMontserrat;" edge="1" parent="1" source="tDcAuVGbezX6oGikaFmZ-14">
          <mxGeometry relative="1" as="geometry">
            <mxPoint x="160" y="80" as="sourcePoint" />
            <mxPoint x="180" y="80" as="targetPoint" />
            <Array as="points" />
          </mxGeometry>
        </mxCell>
        <mxCell id="tDcAuVGbezX6oGikaFmZ-23" value="110v AC in c&lt;span style=&quot;font-size: 12px;&quot;&gt;onduit&lt;/span&gt;" style="rounded=0;html=1;whiteSpace=wrap;verticalAlign=middle;fontFamily=Montserrat;fontSource=https%3A%2F%2Ffonts.googleapis.com%2Fcss%3Ffamily%3DMontserrat;" vertex="1" parent="1">
          <mxGeometry x="117" y="512.5" width="200" height="13" as="geometry" />
        </mxCell>
        <mxCell id="tDcAuVGbezX6oGikaFmZ-25" value="2xCAT6 &amp;amp;&amp;nbsp;&lt;span style=&quot;font-size: 12px;&quot;&gt;1x Pull String in&amp;nbsp;&lt;/span&gt;&lt;span style=&quot;font-size: 12px;&quot;&gt;conduit&lt;/span&gt;" style="rounded=0;whiteSpace=wrap;html=1;fontFamily=Montserrat;fontSource=https%3A%2F%2Ffonts.googleapis.com%2Fcss%3Ffamily%3DMontserrat;" vertex="1" parent="1">
          <mxGeometry x="88.5" y="534" width="263" height="13" as="geometry" />
        </mxCell>
        <mxCell id="tDcAuVGbezX6oGikaFmZ-28" value="&lt;font style=&quot;font-size: 21px;&quot; color=&quot;#ffffff&quot;&gt;TRAMPOLINE&lt;/font&gt;" style="ellipse;whiteSpace=wrap;html=1;aspect=fixed;strokeWidth=6;fillColor=#000000;strokeColor=#8A919C;fontSize=21;fontFamily=Montserrat;fontSource=https%3A%2F%2Ffonts.googleapis.com%2Fcss%3Ffamily%3DMontserrat;" vertex="1" parent="1">
          <mxGeometry x="650" y="120" width="170" height="170" as="geometry" />
        </mxCell>
        <mxCell id="tDcAuVGbezX6oGikaFmZ-29" value="Fire Pit" style="whiteSpace=wrap;html=1;aspect=fixed;strokeWidth=5;fillColor=#BBC5D4;fontFamily=Montserrat;fontSource=https%3A%2F%2Ffonts.googleapis.com%2Fcss%3Ffamily%3DMontserrat;labelBorderColor=none;labelBackgroundColor=none;spacing=4;fontSize=22;" vertex="1" parent="1">
          <mxGeometry x="265" y="270" width="160" height="160" as="geometry" />
        </mxCell>
        <mxCell id="tDcAuVGbezX6oGikaFmZ-30" value="" style="whiteSpace=wrap;html=1;aspect=fixed;fillColor=#a0522d;fontColor=#ffffff;strokeColor=#6D1F00;fontFamily=Montserrat;fontSource=https%3A%2F%2Ffonts.googleapis.com%2Fcss%3Ffamily%3DMontserrat;" vertex="1" parent="1">
          <mxGeometry x="220" y="400" width="30" height="30" as="geometry" />
        </mxCell>
        <mxCell id="tDcAuVGbezX6oGikaFmZ-31" value="" style="whiteSpace=wrap;html=1;aspect=fixed;fillColor=#a0522d;fontColor=#ffffff;strokeColor=#6D1F00;fontFamily=Montserrat;fontSource=https%3A%2F%2Ffonts.googleapis.com%2Fcss%3Ffamily%3DMontserrat;" vertex="1" parent="1">
          <mxGeometry x="395" y="230" width="30" height="30" as="geometry" />
        </mxCell>
        <mxCell id="tDcAuVGbezX6oGikaFmZ-37" style="edgeStyle=orthogonalEdgeStyle;rounded=0;orthogonalLoop=1;jettySize=auto;html=1;strokeWidth=30;endArrow=none;endFill=0;fillColor=#a0522d;strokeColor=#aa7942;fontFamily=Montserrat;fontSource=https%3A%2F%2Ffonts.googleapis.com%2Fcss%3Ffamily%3DMontserrat;" edge="1" parent="1" source="tDcAuVGbezX6oGikaFmZ-32" target="tDcAuVGbezX6oGikaFmZ-31">
          <mxGeometry relative="1" as="geometry" />
        </mxCell>
        <mxCell id="tDcAuVGbezX6oGikaFmZ-38" style="edgeStyle=orthogonalEdgeStyle;rounded=0;orthogonalLoop=1;jettySize=auto;html=1;strokeWidth=30;endArrow=none;endFill=0;fillColor=#a0522d;strokeColor=#aa7942;fontFamily=Montserrat;fontSource=https%3A%2F%2Ffonts.googleapis.com%2Fcss%3Ffamily%3DMontserrat;" edge="1" parent="1" source="tDcAuVGbezX6oGikaFmZ-39" target="tDcAuVGbezX6oGikaFmZ-30">
          <mxGeometry relative="1" as="geometry" />
        </mxCell>
        <mxCell id="tDcAuVGbezX6oGikaFmZ-58" style="edgeStyle=orthogonalEdgeStyle;rounded=0;orthogonalLoop=1;jettySize=auto;html=1;endArrow=none;endFill=0;strokeWidth=2;dashed=1;dashPattern=1 2;fontFamily=Montserrat;fontSource=https%3A%2F%2Ffonts.googleapis.com%2Fcss%3Ffamily%3DMontserrat;" edge="1" parent="1" source="tDcAuVGbezX6oGikaFmZ-32" target="tDcAuVGbezX6oGikaFmZ-39">
          <mxGeometry relative="1" as="geometry" />
        </mxCell>
        <mxCell id="tDcAuVGbezX6oGikaFmZ-59" style="edgeStyle=orthogonalEdgeStyle;rounded=0;orthogonalLoop=1;jettySize=auto;html=1;endArrow=none;endFill=0;strokeWidth=2;dashed=1;dashPattern=1 2;" edge="1" parent="1" source="tDcAuVGbezX6oGikaFmZ-32" target="tDcAuVGbezX6oGikaFmZ-41">
          <mxGeometry relative="1" as="geometry" />
        </mxCell>
        <mxCell id="tDcAuVGbezX6oGikaFmZ-32" value="" style="whiteSpace=wrap;html=1;aspect=fixed;fillColor=#a0522d;fontColor=#ffffff;strokeColor=#6D1F00;fontFamily=Montserrat;fontSource=https%3A%2F%2Ffonts.googleapis.com%2Fcss%3Ffamily%3DMontserrat;" vertex="1" parent="1">
          <mxGeometry x="220" y="230" width="30" height="30" as="geometry" />
        </mxCell>
        <mxCell id="tDcAuVGbezX6oGikaFmZ-34" value="" style="endArrow=none;html=1;rounded=0;fillColor=#eeeeee;strokeColor=#8A919C;strokeWidth=3;fontFamily=Montserrat;fontSource=https%3A%2F%2Ffonts.googleapis.com%2Fcss%3Ffamily%3DMontserrat;exitX=1;exitY=0.5;exitDx=0;exitDy=0;" edge="1" parent="1" source="tDcAuVGbezX6oGikaFmZ-14" target="tDcAuVGbezX6oGikaFmZ-39">
          <mxGeometry width="50" height="50" relative="1" as="geometry">
            <mxPoint x="300" y="340" as="sourcePoint" />
            <mxPoint x="350" y="290" as="targetPoint" />
            <Array as="points" />
          </mxGeometry>
        </mxCell>
        <mxCell id="tDcAuVGbezX6oGikaFmZ-35" value="12/4 Speaker" style="edgeLabel;html=1;align=center;verticalAlign=middle;resizable=0;points=[];fontFamily=Montserrat;fontSource=https%3A%2F%2Ffonts.googleapis.com%2Fcss%3Ffamily%3DMontserrat;labelBorderColor=default;rotation=56;" vertex="1" connectable="0" parent="tDcAuVGbezX6oGikaFmZ-34">
          <mxGeometry x="0.1489" relative="1" as="geometry">
            <mxPoint x="-5" y="-13" as="offset" />
          </mxGeometry>
        </mxCell>
        <mxCell id="tDcAuVGbezX6oGikaFmZ-56" style="edgeStyle=orthogonalEdgeStyle;rounded=0;orthogonalLoop=1;jettySize=auto;html=1;dashed=1;dashPattern=1 2;endArrow=none;endFill=0;strokeWidth=2;fontFamily=Montserrat;fontSource=https%3A%2F%2Ffonts.googleapis.com%2Fcss%3Ffamily%3DMontserrat;" edge="1" parent="1" source="tDcAuVGbezX6oGikaFmZ-39" target="tDcAuVGbezX6oGikaFmZ-30">
          <mxGeometry relative="1" as="geometry" />
        </mxCell>
        <mxCell id="tDcAuVGbezX6oGikaFmZ-57" value="string lights" style="edgeLabel;html=1;align=center;verticalAlign=middle;resizable=0;points=[];fontFamily=Montserrat;fontSource=https%3A%2F%2Ffonts.googleapis.com%2Fcss%3Ffamily%3DMontserrat;labelBorderColor=default;" vertex="1" connectable="0" parent="tDcAuVGbezX6oGikaFmZ-56">
          <mxGeometry x="0.17" relative="1" as="geometry">
            <mxPoint x="45" y="-174" as="offset" />
          </mxGeometry>
        </mxCell>
        <mxCell id="tDcAuVGbezX6oGikaFmZ-39" value="&lt;font color=&quot;#ffffff&quot; style=&quot;font-size: 8px;&quot;&gt;sonos&lt;/font&gt;&lt;div style=&quot;font-size: 8px;&quot;&gt;&lt;font color=&quot;#ffffff&quot; style=&quot;font-size: 8px;&quot;&gt;speaker&lt;/font&gt;&lt;/div&gt;" style="whiteSpace=wrap;html=1;aspect=fixed;fillColor=#000000;fontFamily=Montserrat;fontSource=https%3A%2F%2Ffonts.googleapis.com%2Fcss%3Ffamily%3DMontserrat;fontSize=8;" vertex="1" parent="1">
          <mxGeometry x="215" y="320" width="40" height="40" as="geometry" />
        </mxCell>
        <mxCell id="tDcAuVGbezX6oGikaFmZ-60" style="edgeStyle=orthogonalEdgeStyle;rounded=0;orthogonalLoop=1;jettySize=auto;html=1;endArrow=none;endFill=0;strokeWidth=2;dashed=1;dashPattern=1 2;" edge="1" parent="1" source="tDcAuVGbezX6oGikaFmZ-41" target="tDcAuVGbezX6oGikaFmZ-31">
          <mxGeometry relative="1" as="geometry" />
        </mxCell>
        <mxCell id="tDcAuVGbezX6oGikaFmZ-41" value="&lt;font color=&quot;#ffffff&quot; style=&quot;font-size: 8px;&quot;&gt;sonos&lt;/font&gt;&lt;div style=&quot;font-size: 8px;&quot;&gt;&lt;font color=&quot;#ffffff&quot; style=&quot;font-size: 8px;&quot;&gt;speaker&lt;/font&gt;&lt;/div&gt;" style="whiteSpace=wrap;html=1;aspect=fixed;fillColor=#000000;fontFamily=Montserrat;fontSource=https%3A%2F%2Ffonts.googleapis.com%2Fcss%3Ffamily%3DMontserrat;fontSize=8;" vertex="1" parent="1">
          <mxGeometry x="311.5" y="225" width="40" height="40" as="geometry" />
        </mxCell>
        <mxCell id="tDcAuVGbezX6oGikaFmZ-55" style="edgeStyle=orthogonalEdgeStyle;rounded=0;orthogonalLoop=1;jettySize=auto;html=1;endArrow=none;endFill=0;strokeWidth=3;strokeColor=#8A919C;fontFamily=Montserrat;fontSource=https%3A%2F%2Ffonts.googleapis.com%2Fcss%3Ffamily%3DMontserrat;" edge="1" parent="1" source="tDcAuVGbezX6oGikaFmZ-44" target="tDcAuVGbezX6oGikaFmZ-45">
          <mxGeometry relative="1" as="geometry" />
        </mxCell>
        <mxCell id="tDcAuVGbezX6oGikaFmZ-44" value="&lt;font style=&quot;font-size: 7px;&quot;&gt;rock speakers&lt;/font&gt;" style="ellipse;whiteSpace=wrap;html=1;aspect=fixed;fillColor=#bac8d3;strokeColor=#23445d;fontFamily=Montserrat;fontSource=https%3A%2F%2Ffonts.googleapis.com%2Fcss%3Ffamily%3DMontserrat;fontSize=7;spacing=4;" vertex="1" parent="1">
          <mxGeometry x="620" y="90" width="40" height="40" as="geometry" />
        </mxCell>
        <mxCell id="tDcAuVGbezX6oGikaFmZ-45" value="&lt;font style=&quot;font-size: 7px;&quot;&gt;rock speakers&lt;/font&gt;" style="ellipse;whiteSpace=wrap;html=1;aspect=fixed;fillColor=#bac8d3;strokeColor=#23445d;fontFamily=Montserrat;fontSource=https%3A%2F%2Ffonts.googleapis.com%2Fcss%3Ffamily%3DMontserrat;fontSize=7;spacing=4;" vertex="1" parent="1">
          <mxGeometry x="800" y="90" width="40" height="40" as="geometry" />
        </mxCell>
        <mxCell id="tDcAuVGbezX6oGikaFmZ-54" style="edgeStyle=orthogonalEdgeStyle;rounded=0;orthogonalLoop=1;jettySize=auto;html=1;endArrow=none;endFill=0;strokeColor=#8A919C;strokeWidth=3;fontFamily=Montserrat;fontSource=https%3A%2F%2Ffonts.googleapis.com%2Fcss%3Ffamily%3DMontserrat;" edge="1" parent="1" source="tDcAuVGbezX6oGikaFmZ-46" target="tDcAuVGbezX6oGikaFmZ-28">
          <mxGeometry relative="1" as="geometry" />
        </mxCell>
        <mxCell id="tDcAuVGbezX6oGikaFmZ-46" value="&lt;font color=&quot;#ffffff&quot; data-font-src=&quot;https://fonts.googleapis.com/css?family=Roboto&quot; style=&quot;font-size: 7px;&quot;&gt;outlet&lt;/font&gt;" style="whiteSpace=wrap;html=1;fillColor=#000000;fontFamily=Montserrat;fontSource=https%3A%2F%2Ffonts.googleapis.com%2Fcss%3Ffamily%3DMontserrat;fontSize=7;spacing=4;" vertex="1" parent="1">
          <mxGeometry x="720" y="70" width="30" height="20" as="geometry" />
        </mxCell>
        <mxCell id="tDcAuVGbezX6oGikaFmZ-48" style="edgeStyle=orthogonalEdgeStyle;rounded=0;orthogonalLoop=1;jettySize=auto;html=1;fontColor=#8A919C;endArrow=none;endFill=0;strokeWidth=3;fillColor=#bac8d3;strokeColor=#8A919C;fontFamily=Montserrat;fontSource=https%3A%2F%2Ffonts.googleapis.com%2Fcss%3Ffamily%3DMontserrat;" edge="1" parent="1" source="tDcAuVGbezX6oGikaFmZ-18" target="tDcAuVGbezX6oGikaFmZ-46">
          <mxGeometry relative="1" as="geometry">
            <mxPoint x="720" y="70" as="targetPoint" />
            <Array as="points">
              <mxPoint x="520" y="80" />
              <mxPoint x="520" y="80" />
            </Array>
          </mxGeometry>
        </mxCell>
        <mxCell id="tDcAuVGbezX6oGikaFmZ-49" value="110v" style="edgeLabel;html=1;align=center;verticalAlign=middle;resizable=0;points=[];fontFamily=Montserrat;fontSource=https%3A%2F%2Ffonts.googleapis.com%2Fcss%3Ffamily%3DMontserrat;labelBorderColor=default;" vertex="1" connectable="0" parent="tDcAuVGbezX6oGikaFmZ-48">
          <mxGeometry x="-0.0852" y="-1" relative="1" as="geometry">
            <mxPoint as="offset" />
          </mxGeometry>
        </mxCell>
        <mxCell id="tDcAuVGbezX6oGikaFmZ-50" style="edgeStyle=orthogonalEdgeStyle;rounded=0;orthogonalLoop=1;jettySize=auto;html=1;fontColor=#8A919C;endArrow=none;endFill=0;strokeWidth=3;fillColor=#bac8d3;strokeColor=#8A919C;fontFamily=Montserrat;fontSource=https%3A%2F%2Ffonts.googleapis.com%2Fcss%3Ffamily%3DMontserrat;" edge="1" parent="1" source="tDcAuVGbezX6oGikaFmZ-18">
          <mxGeometry relative="1" as="geometry">
            <mxPoint x="260" y="109.8" as="sourcePoint" />
            <mxPoint x="620.635083268963" y="109.8" as="targetPoint" />
            <Array as="points">
              <mxPoint x="440" y="110" />
            </Array>
          </mxGeometry>
        </mxCell>
        <mxCell id="tDcAuVGbezX6oGikaFmZ-51" value="12/4 speaker wire" style="edgeLabel;html=1;align=center;verticalAlign=middle;resizable=0;points=[];fontFamily=Montserrat;fontSource=https%3A%2F%2Ffonts.googleapis.com%2Fcss%3Ffamily%3DMontserrat;labelBorderColor=default;spacing=4;fontSize=11;spacingLeft=0;" vertex="1" connectable="0" parent="tDcAuVGbezX6oGikaFmZ-50">
          <mxGeometry x="-0.0852" y="-1" relative="1" as="geometry">
            <mxPoint x="45" y="-2" as="offset" />
          </mxGeometry>
        </mxCell>
        <mxCell id="tDcAuVGbezX6oGikaFmZ-52" value="&lt;font style=&quot;font-size: 7px;&quot; data-font-src=&quot;https://fonts.googleapis.com/css?family=Roboto&quot;&gt;sump&lt;/font&gt;" style="whiteSpace=wrap;html=1;fillColor=#8A919C;fontFamily=Montserrat;fontSource=https%3A%2F%2Ffonts.googleapis.com%2Fcss%3Ffamily%3DMontserrat;fontSize=7;strokeColor=#56517e;fontColor=#FFFFFF;spacing=4;" vertex="1" parent="1">
          <mxGeometry x="720" y="220" width="40" height="20" as="geometry" />
        </mxCell>
        <mxCell id="tDcAuVGbezX6oGikaFmZ-53" value="&lt;font style=&quot;font-size: 7px;&quot; data-font-src=&quot;https://fonts.googleapis.com/css?family=Roboto&quot;&gt;hue strip&lt;/font&gt;" style="whiteSpace=wrap;html=1;fillColor=#8A919C;fontFamily=Montserrat;fontSource=https%3A%2F%2Ffonts.googleapis.com%2Fcss%3Ffamily%3DMontserrat;fontSize=7;strokeColor=#56517e;fontColor=#FFFFFF;spacing=4;" vertex="1" parent="1">
          <mxGeometry x="720" y="160" width="40" height="20" as="geometry" />
        </mxCell>
        <mxCell id="tDcAuVGbezX6oGikaFmZ-64" style="rounded=0;orthogonalLoop=1;jettySize=auto;html=1;endArrow=none;endFill=0;strokeColor=#8A919C;strokeWidth=3;" edge="1" parent="1" source="tDcAuVGbezX6oGikaFmZ-61" target="tDcAuVGbezX6oGikaFmZ-14">
          <mxGeometry relative="1" as="geometry" />
        </mxCell>
        <mxCell id="tDcAuVGbezX6oGikaFmZ-65" value="110v" style="edgeLabel;html=1;align=center;verticalAlign=middle;resizable=0;points=[];fontFamily=Montserrat;fontSource=https%3A%2F%2Ffonts.googleapis.com%2Fcss%3Ffamily%3DMontserrat;labelBorderColor=default;rotation=45;" vertex="1" connectable="0" parent="tDcAuVGbezX6oGikaFmZ-64">
          <mxGeometry x="-0.0989" y="-2" relative="1" as="geometry">
            <mxPoint as="offset" />
          </mxGeometry>
        </mxCell>
        <mxCell id="tDcAuVGbezX6oGikaFmZ-61" value="&lt;font color=&quot;#ffffff&quot; data-font-src=&quot;https://fonts.googleapis.com/css?family=Roboto&quot; style=&quot;font-size: 7px;&quot;&gt;outlet&lt;/font&gt;" style="whiteSpace=wrap;html=1;fillColor=#000000;fontFamily=Montserrat;fontSource=https%3A%2F%2Ffonts.googleapis.com%2Fcss%3Ffamily%3DMontserrat;fontSize=7;spacing=4;rotation=45;" vertex="1" parent="1">
          <mxGeometry x="190" y="220" width="30" height="20" as="geometry" />
        </mxCell>
      </root>
    </mxGraphModel>
  </diagram>
</mxfile>
